<mxfile host="app.diagrams.net" agent="Mozilla/5.0 (Windows NT 10.0; Win64; x64) AppleWebKit/537.36 (KHTML, like Gecko) Chrome/134.0.0.0 Safari/537.36" version="26.2.3">
  <diagram name="Página-1" id="9jobSPNPOx5KcehDaBIN">
    <mxGraphModel dx="1144" dy="1633" grid="1" gridSize="10" guides="1" tooltips="1" connect="1" arrows="1" fold="1" page="1" pageScale="1" pageWidth="827" pageHeight="1169" math="0" shadow="0">
      <root>
        <mxCell id="0" />
        <mxCell id="1" parent="0" />
        <mxCell id="DOIb54zDDeBc5l1PFzPn-20" style="edgeStyle=orthogonalEdgeStyle;rounded=0;orthogonalLoop=1;jettySize=auto;html=1;entryX=0;entryY=0.5;entryDx=0;entryDy=0;" parent="1" source="DOIb54zDDeBc5l1PFzPn-1" target="DOIb54zDDeBc5l1PFzPn-5" edge="1">
          <mxGeometry relative="1" as="geometry" />
        </mxCell>
        <mxCell id="DOIb54zDDeBc5l1PFzPn-21" style="edgeStyle=orthogonalEdgeStyle;rounded=0;orthogonalLoop=1;jettySize=auto;html=1;entryX=0;entryY=0.5;entryDx=0;entryDy=0;" parent="1" source="DOIb54zDDeBc5l1PFzPn-1" target="DOIb54zDDeBc5l1PFzPn-10" edge="1">
          <mxGeometry relative="1" as="geometry" />
        </mxCell>
        <mxCell id="DOIb54zDDeBc5l1PFzPn-22" style="edgeStyle=orthogonalEdgeStyle;rounded=0;orthogonalLoop=1;jettySize=auto;html=1;entryX=0;entryY=0.75;entryDx=0;entryDy=0;" parent="1" source="DOIb54zDDeBc5l1PFzPn-1" target="DOIb54zDDeBc5l1PFzPn-15" edge="1">
          <mxGeometry relative="1" as="geometry" />
        </mxCell>
        <mxCell id="DOIb54zDDeBc5l1PFzPn-1" value="&amp;lt;&amp;lt;Admin&amp;gt;&amp;gt;" style="shape=umlActor;verticalLabelPosition=bottom;verticalAlign=top;html=1;outlineConnect=0;" parent="1" vertex="1">
          <mxGeometry x="40" y="250" width="30" height="60" as="geometry" />
        </mxCell>
        <mxCell id="DOIb54zDDeBc5l1PFzPn-5" value="Gestión de usuarios" style="swimlane;whiteSpace=wrap;html=1;" parent="1" vertex="1">
          <mxGeometry x="170" y="50" width="200" height="230" as="geometry" />
        </mxCell>
        <mxCell id="DOIb54zDDeBc5l1PFzPn-7" value="Crear Usuarios" style="ellipse;whiteSpace=wrap;html=1;" parent="DOIb54zDDeBc5l1PFzPn-5" vertex="1">
          <mxGeometry x="40" y="50" width="120" height="40" as="geometry" />
        </mxCell>
        <mxCell id="DOIb54zDDeBc5l1PFzPn-8" value="Modificar Usuarios" style="ellipse;whiteSpace=wrap;html=1;" parent="DOIb54zDDeBc5l1PFzPn-5" vertex="1">
          <mxGeometry x="40" y="110" width="120" height="40" as="geometry" />
        </mxCell>
        <mxCell id="DOIb54zDDeBc5l1PFzPn-9" value="Borrar Usuarios" style="ellipse;whiteSpace=wrap;html=1;" parent="DOIb54zDDeBc5l1PFzPn-5" vertex="1">
          <mxGeometry x="40" y="170" width="120" height="40" as="geometry" />
        </mxCell>
        <mxCell id="DOIb54zDDeBc5l1PFzPn-10" value="Gestión de trabajadores" style="swimlane;whiteSpace=wrap;html=1;" parent="1" vertex="1">
          <mxGeometry x="170" y="300" width="200" height="230" as="geometry" />
        </mxCell>
        <mxCell id="DOIb54zDDeBc5l1PFzPn-12" value="Crear Trabajador" style="ellipse;whiteSpace=wrap;html=1;" parent="DOIb54zDDeBc5l1PFzPn-10" vertex="1">
          <mxGeometry x="40" y="40" width="120" height="40" as="geometry" />
        </mxCell>
        <mxCell id="DOIb54zDDeBc5l1PFzPn-13" value="Modificar Trabajador" style="ellipse;whiteSpace=wrap;html=1;" parent="DOIb54zDDeBc5l1PFzPn-10" vertex="1">
          <mxGeometry x="40" y="100" width="120" height="40" as="geometry" />
        </mxCell>
        <mxCell id="DOIb54zDDeBc5l1PFzPn-14" value="Borrar Trabajador" style="ellipse;whiteSpace=wrap;html=1;" parent="DOIb54zDDeBc5l1PFzPn-10" vertex="1">
          <mxGeometry x="40" y="160" width="120" height="40" as="geometry" />
        </mxCell>
        <mxCell id="DOIb54zDDeBc5l1PFzPn-15" value="Gestión de productos" style="swimlane;whiteSpace=wrap;html=1;" parent="1" vertex="1">
          <mxGeometry x="170" y="540" width="200" height="220" as="geometry" />
        </mxCell>
        <mxCell id="DOIb54zDDeBc5l1PFzPn-17" value="Crear Productos" style="ellipse;whiteSpace=wrap;html=1;" parent="DOIb54zDDeBc5l1PFzPn-15" vertex="1">
          <mxGeometry x="40" y="30" width="120" height="40" as="geometry" />
        </mxCell>
        <mxCell id="DOIb54zDDeBc5l1PFzPn-19" value="Borrar Productos" style="ellipse;whiteSpace=wrap;html=1;" parent="DOIb54zDDeBc5l1PFzPn-15" vertex="1">
          <mxGeometry x="40" y="130" width="120" height="40" as="geometry" />
        </mxCell>
        <mxCell id="jFR0uvd_aaatTz_Bq_XV-1" value="Modificar Productos" style="ellipse;whiteSpace=wrap;html=1;" parent="DOIb54zDDeBc5l1PFzPn-15" vertex="1">
          <mxGeometry x="40" y="80" width="120" height="40" as="geometry" />
        </mxCell>
        <mxCell id="jFR0uvd_aaatTz_Bq_XV-2" value="Gestión de proveedores" style="swimlane;whiteSpace=wrap;html=1;" parent="1" vertex="1">
          <mxGeometry x="170" y="770" width="200" height="180" as="geometry" />
        </mxCell>
        <mxCell id="jFR0uvd_aaatTz_Bq_XV-3" value="Crear Proveedores" style="ellipse;whiteSpace=wrap;html=1;" parent="jFR0uvd_aaatTz_Bq_XV-2" vertex="1">
          <mxGeometry x="40" y="30" width="120" height="40" as="geometry" />
        </mxCell>
        <mxCell id="jFR0uvd_aaatTz_Bq_XV-4" value="Borrar Proveedores" style="ellipse;whiteSpace=wrap;html=1;" parent="jFR0uvd_aaatTz_Bq_XV-2" vertex="1">
          <mxGeometry x="40" y="130" width="120" height="40" as="geometry" />
        </mxCell>
        <mxCell id="jFR0uvd_aaatTz_Bq_XV-5" value="Modificar Proveedores" style="ellipse;whiteSpace=wrap;html=1;" parent="jFR0uvd_aaatTz_Bq_XV-2" vertex="1">
          <mxGeometry x="40" y="80" width="120" height="40" as="geometry" />
        </mxCell>
        <mxCell id="jFR0uvd_aaatTz_Bq_XV-6" value="" style="endArrow=none;html=1;rounded=0;" parent="1" edge="1">
          <mxGeometry width="50" height="50" relative="1" as="geometry">
            <mxPoint x="120" y="860" as="sourcePoint" />
            <mxPoint x="120" y="690" as="targetPoint" />
          </mxGeometry>
        </mxCell>
        <mxCell id="jFR0uvd_aaatTz_Bq_XV-7" value="" style="endArrow=classic;html=1;rounded=0;entryX=0;entryY=0.5;entryDx=0;entryDy=0;" parent="1" target="jFR0uvd_aaatTz_Bq_XV-2" edge="1">
          <mxGeometry width="50" height="50" relative="1" as="geometry">
            <mxPoint x="120" y="860" as="sourcePoint" />
            <mxPoint x="90" y="890" as="targetPoint" />
          </mxGeometry>
        </mxCell>
        <mxCell id="Md1ISndK05BYJ8Qvw0PC-1" value="Gestión de roles" style="swimlane;whiteSpace=wrap;html=1;" vertex="1" parent="1">
          <mxGeometry x="170" y="970" width="200" height="220" as="geometry" />
        </mxCell>
        <mxCell id="Md1ISndK05BYJ8Qvw0PC-2" value="Cliente" style="ellipse;whiteSpace=wrap;html=1;" vertex="1" parent="Md1ISndK05BYJ8Qvw0PC-1">
          <mxGeometry x="40" y="30" width="120" height="40" as="geometry" />
        </mxCell>
        <mxCell id="Md1ISndK05BYJ8Qvw0PC-3" value="Trabajador" style="ellipse;whiteSpace=wrap;html=1;" vertex="1" parent="Md1ISndK05BYJ8Qvw0PC-1">
          <mxGeometry x="40" y="130" width="120" height="40" as="geometry" />
        </mxCell>
        <mxCell id="Md1ISndK05BYJ8Qvw0PC-4" value="Usuario" style="ellipse;whiteSpace=wrap;html=1;" vertex="1" parent="Md1ISndK05BYJ8Qvw0PC-1">
          <mxGeometry x="40" y="80" width="120" height="40" as="geometry" />
        </mxCell>
        <mxCell id="Md1ISndK05BYJ8Qvw0PC-5" value="Admin" style="ellipse;whiteSpace=wrap;html=1;" vertex="1" parent="Md1ISndK05BYJ8Qvw0PC-1">
          <mxGeometry x="40" y="180" width="120" height="40" as="geometry" />
        </mxCell>
        <mxCell id="Md1ISndK05BYJ8Qvw0PC-6" value="" style="endArrow=none;html=1;rounded=0;" edge="1" parent="1">
          <mxGeometry width="50" height="50" relative="1" as="geometry">
            <mxPoint x="120" y="1080" as="sourcePoint" />
            <mxPoint x="120" y="860" as="targetPoint" />
          </mxGeometry>
        </mxCell>
        <mxCell id="Md1ISndK05BYJ8Qvw0PC-7" value="" style="endArrow=classic;html=1;rounded=0;entryX=0;entryY=0.5;entryDx=0;entryDy=0;" edge="1" parent="1" target="Md1ISndK05BYJ8Qvw0PC-1">
          <mxGeometry width="50" height="50" relative="1" as="geometry">
            <mxPoint x="120" y="1080" as="sourcePoint" />
            <mxPoint x="170" y="1030" as="targetPoint" />
          </mxGeometry>
        </mxCell>
        <mxCell id="Md1ISndK05BYJ8Qvw0PC-8" value="Gestión de pedidos" style="swimlane;whiteSpace=wrap;html=1;" vertex="1" parent="1">
          <mxGeometry x="170" y="-130" width="200" height="130" as="geometry" />
        </mxCell>
        <mxCell id="Md1ISndK05BYJ8Qvw0PC-9" value="Ver pedidos" style="ellipse;whiteSpace=wrap;html=1;" vertex="1" parent="Md1ISndK05BYJ8Qvw0PC-8">
          <mxGeometry x="40" y="30" width="120" height="40" as="geometry" />
        </mxCell>
        <mxCell id="Md1ISndK05BYJ8Qvw0PC-11" value="Modificar estado" style="ellipse;whiteSpace=wrap;html=1;" vertex="1" parent="Md1ISndK05BYJ8Qvw0PC-8">
          <mxGeometry x="40" y="80" width="120" height="40" as="geometry" />
        </mxCell>
        <mxCell id="Md1ISndK05BYJ8Qvw0PC-13" value="" style="endArrow=none;html=1;rounded=0;" edge="1" parent="1">
          <mxGeometry width="50" height="50" relative="1" as="geometry">
            <mxPoint x="120" y="170" as="sourcePoint" />
            <mxPoint x="120" y="-40" as="targetPoint" />
          </mxGeometry>
        </mxCell>
        <mxCell id="Md1ISndK05BYJ8Qvw0PC-14" value="" style="endArrow=classic;html=1;rounded=0;" edge="1" parent="1">
          <mxGeometry width="50" height="50" relative="1" as="geometry">
            <mxPoint x="120" y="-40" as="sourcePoint" />
            <mxPoint x="170" y="-40" as="targetPoint" />
          </mxGeometry>
        </mxCell>
        <mxCell id="Md1ISndK05BYJ8Qvw0PC-15" value="Controlar stock" style="ellipse;whiteSpace=wrap;html=1;" vertex="1" parent="1">
          <mxGeometry x="210" y="715" width="120" height="40" as="geometry" />
        </mxCell>
      </root>
    </mxGraphModel>
  </diagram>
</mxfile>
